<mxfile host="app.diagrams.net" agent="Mozilla/5.0 (Windows NT 10.0; Win64; x64; rv:138.0) Gecko/20100101 Firefox/138.0" version="27.0.9">
  <diagram name="Seite-1" id="DpgOUwNI7-XRcf66CcfA">
    <mxGraphModel dx="826" dy="448" grid="1" gridSize="10" guides="1" tooltips="1" connect="1" arrows="1" fold="1" page="1" pageScale="1" pageWidth="827" pageHeight="1169" math="0" shadow="0">
      <root>
        <mxCell id="0" />
        <mxCell id="1" parent="0" />
        <mxCell id="Tn3Td7QB5pk2EmzLj1tn-15" style="edgeStyle=orthogonalEdgeStyle;rounded=0;orthogonalLoop=1;jettySize=auto;html=1;exitX=0.5;exitY=1;exitDx=0;exitDy=0;entryX=0.25;entryY=0;entryDx=0;entryDy=0;" edge="1" parent="1" source="Tn3Td7QB5pk2EmzLj1tn-1" target="Tn3Td7QB5pk2EmzLj1tn-10">
          <mxGeometry relative="1" as="geometry" />
        </mxCell>
        <mxCell id="Tn3Td7QB5pk2EmzLj1tn-1" value="" style="rounded=0;whiteSpace=wrap;html=1;fillColor=#fff2cc;strokeColor=#d6b656;" vertex="1" parent="1">
          <mxGeometry x="280" y="520" width="40" height="20" as="geometry" />
        </mxCell>
        <mxCell id="Tn3Td7QB5pk2EmzLj1tn-2" value="" style="rounded=0;whiteSpace=wrap;html=1;fillColor=#dae8fc;strokeColor=#6c8ebf;" vertex="1" parent="1">
          <mxGeometry x="320" y="520" width="40" height="20" as="geometry" />
        </mxCell>
        <mxCell id="Tn3Td7QB5pk2EmzLj1tn-3" value="" style="rounded=0;whiteSpace=wrap;html=1;fillColor=#fff2cc;strokeColor=#d6b656;" vertex="1" parent="1">
          <mxGeometry x="400" y="520" width="40" height="20" as="geometry" />
        </mxCell>
        <mxCell id="Tn3Td7QB5pk2EmzLj1tn-4" value="" style="rounded=0;whiteSpace=wrap;html=1;fillColor=#dae8fc;strokeColor=#6c8ebf;" vertex="1" parent="1">
          <mxGeometry x="440" y="520" width="40" height="20" as="geometry" />
        </mxCell>
        <mxCell id="Tn3Td7QB5pk2EmzLj1tn-5" value="Microphone" style="rounded=0;whiteSpace=wrap;html=1;" vertex="1" parent="1">
          <mxGeometry x="280" y="470" width="80" height="20" as="geometry" />
        </mxCell>
        <mxCell id="Tn3Td7QB5pk2EmzLj1tn-6" value="Speaker" style="rounded=0;whiteSpace=wrap;html=1;" vertex="1" parent="1">
          <mxGeometry x="400" y="470" width="80" height="20" as="geometry" />
        </mxCell>
        <mxCell id="Tn3Td7QB5pk2EmzLj1tn-10" value="Audio recording" style="rounded=0;whiteSpace=wrap;html=1;" vertex="1" parent="1">
          <mxGeometry x="280" y="570" width="80" height="30" as="geometry" />
        </mxCell>
        <mxCell id="Tn3Td7QB5pk2EmzLj1tn-16" style="edgeStyle=orthogonalEdgeStyle;rounded=0;orthogonalLoop=1;jettySize=auto;html=1;exitX=0.25;exitY=0;exitDx=0;exitDy=0;entryX=0.5;entryY=1;entryDx=0;entryDy=0;" edge="1" parent="1" source="Tn3Td7QB5pk2EmzLj1tn-11" target="Tn3Td7QB5pk2EmzLj1tn-3">
          <mxGeometry relative="1" as="geometry" />
        </mxCell>
        <mxCell id="Tn3Td7QB5pk2EmzLj1tn-11" value="Audio playback" style="rounded=0;whiteSpace=wrap;html=1;" vertex="1" parent="1">
          <mxGeometry x="400" y="570" width="80" height="30" as="geometry" />
        </mxCell>
        <mxCell id="Tn3Td7QB5pk2EmzLj1tn-14" style="edgeStyle=orthogonalEdgeStyle;rounded=0;orthogonalLoop=1;jettySize=auto;html=1;exitX=0.75;exitY=1;exitDx=0;exitDy=0;entryX=0.5;entryY=0;entryDx=0;entryDy=0;" edge="1" parent="1" source="Tn3Td7QB5pk2EmzLj1tn-5" target="Tn3Td7QB5pk2EmzLj1tn-2">
          <mxGeometry relative="1" as="geometry" />
        </mxCell>
        <mxCell id="Tn3Td7QB5pk2EmzLj1tn-17" style="edgeStyle=orthogonalEdgeStyle;rounded=0;orthogonalLoop=1;jettySize=auto;html=1;exitX=0.5;exitY=0;exitDx=0;exitDy=0;entryX=0.75;entryY=1;entryDx=0;entryDy=0;" edge="1" parent="1" source="Tn3Td7QB5pk2EmzLj1tn-4" target="Tn3Td7QB5pk2EmzLj1tn-6">
          <mxGeometry relative="1" as="geometry" />
        </mxCell>
      </root>
    </mxGraphModel>
  </diagram>
</mxfile>
